<?xml version="1.0" encoding="utf-8"?>
<!-- Generator: Adobe Illustrator 16.0.0, SVG Export Plug-In . SVG Version: 6.00 Build 0)  -->
<!DOCTYPE svg PUBLIC "-//W3C//DTD SVG 1.1//EN" "http://www.w3.org/Graphics/SVG/1.1/DTD/svg11.dtd">
<svg version="1.1" id="Layer_1" xmlns="http://www.w3.org/2000/svg" xmlns:xlink="http://www.w3.org/1999/xlink" x="0px" y="0px"
	 width="625.688px" height="452.707px" viewBox="0 0 625.688 452.707" enable-background="new 0 0 625.688 452.707"
	 xml:space="preserve">
<g>
	<path fill="#2E3091" d="M213.426,78.896h-107v5.667h10c0,0,18.833-0.667,18.833,22.167s0,144.667,0,144.667
		s0.501,20.666-18.999,20.666c-5.542,0-10.167,0.167-10.167,0.167v5.167h107.5v-5.417h-10.875c0,0-17.875-0.5-17.875-17.875
		s0-148.625,0-148.625s-1.375-20.75,19.125-20.75c3.875,0,9.375,0.25,9.375,0.25L213.426,78.896z"/>
	<path fill="#2E3091" d="M346.093,172.059c0,0,48.17-7.5,48.17-43c0-58.5-89.84-50.33-89.84-50.33h-90.16l-0.05,6.33
		c0,0,3.46,0,8.21,0c22.67,0,19.34,19.67,19.34,19.67s0.16,122.5,0.16,146.5s-22.16,21-22.16,21h-5.5v5.5c0,0,82.33,0,108.66,0
		c26.34,0,81.17-11.83,81.17-54.17C404.093,181.229,346.093,172.059,346.093,172.059z M290.093,90.398c0,0,53.33-6.84,53.33,39.66
		c0,43.5-53.33,38.67-53.33,38.67V90.398z M307.343,266.479c-19.5,0-17.5-20.25-17.5-20.25v-66c48.75-1.17,60.25,17.25,60.25,45.5
		S326.843,266.479,307.343,266.479z"/>
	<path fill="#2E3091" d="M611.423,270.398c-2.5-1.5-11.66-10-14.33-17.34c-2.67-7.33-79.33-172.5-79.33-172.5s-1-5.33-3.84-5.33
		c-2.83,0-2.16,3.17-4,7.33c-1.83,4.17-78.33,166.34-78.33,166.34s-9.33,20.66-24.83,22.66h-3.5v5.84h68.16v-5h-10.16
		c0,0-17-1-17-16.84c0-2.83,1.33-6.83,1.33-6.83l11.33-27.5h73.5l13.5,31.5c0,0,2.84,4.17,2.84,8.83c0,4.67-5.34,10.67-12,10.67
		c-6.67,0-12.34,0-12.34,0v5.5h99.34v-5.83C621.763,271.898,613.923,271.898,611.423,270.398z M462.713,209.979
		c0,0,31.26-66.87,31.76-67s1.37,2.87,1.37,2.87l28.87,64.13H462.713z"/>
	<path fill="#2E3091" d="M122.176,291.729h-16.5v34.833c0,0-1.5,20.667,25.167,20.667c24.833,0,26.167-18.5,26.167-21.417v-33.75
		h-16.167v33.917c0,0-0.333,9.25-9.167,9.25c-8.833,0-9.75-6.749-9.75-8.083S122.176,291.729,122.176,291.729z"/>
	<path fill="#2E3091" d="M161.093,307.395v39.25h15v-22.166c0,0-0.334-6.584,5.166-6.584s5.667,5.168,5.667,7.834s0,20.5,0,20.5
		h15.25v-26.584c0,0,0-13.583-12.917-13.583c-11.166,0-14.416,7.25-14.416,7.25v-6.167L161.093,307.395z"/>
	<path fill="#2E3091" d="M327.177,65.312v-39.25h-15v22.166c0,0,0.334,6.584-5.166,6.584s-5.668-5.168-5.668-7.834s0-20.5,0-20.5
		h-15.25v26.584c0,0,0.001,13.583,12.918,13.583c11.166,0,14.416-7.25,14.416-7.25v6.167L327.177,65.312z"/>
	<path fill="#2E3091" d="M469.427,65.312v-39.25h-15v22.166c0,0,0.334,6.584-5.166,6.584s-5.668-5.168-5.668-7.834s0-20.5,0-20.5
		h-15.25v26.584c0,0,0.001,13.583,12.918,13.583c11.166,0,14.416-7.25,14.416-7.25v6.167L469.427,65.312z"/>
	<rect x="206.009" y="291.562" fill="#2E3091" width="15.334" height="10.667"/>
	<rect x="206.009" y="306.812" fill="#2E3091" width="15.334" height="39.417"/>
	<rect x="394.343" y="291.562" fill="#2E3091" width="15.334" height="10.667"/>
	<rect x="394.343" y="306.812" fill="#2E3091" width="15.334" height="39.417"/>
	<path fill="#2E3091" d="M240.343,306.812H225.26l16.166,39.583h13.334l17.083-39.416h-15.417l-7.166,22.333
		c0,0-0.501,1.5-0.917,1.5C247.926,330.812,240.343,306.812,240.343,306.812z"/>
	<path fill="#2E3091" d="M293.423,305.898c0,0-23.58-0.75-23.58,19.58s13.58,21.92,22.83,21.92s17.899-4,21.479-11.42l-14.31-0.31
		c0,0-2.13,2.75-6.94,2.75c-3.16,0-7.56-2.771-7.979-7.19h30.09C315.013,331.229,320.763,309.148,293.423,305.898z M284.473,323.108
		c0,0-0.5-8.13,7.87-8.13s8.37,8.13,8.37,8.13H284.473z"/>
	<path fill="#2E3091" d="M345.093,318.812l4.917-9.917c0,0-3.75-2.833-7.75-2.833s-8.833,7.25-8.833,7.25l-0.167-6.417h-14.417
		v39.667h15.084v-18.083C333.927,328.479,335.009,313.562,345.093,318.812z"/>
	<path fill="#2E3091" d="M502.926,37.312l4.917-9.917c0,0-3.75-2.833-7.75-2.833s-8.833,7.25-8.833,7.25l-0.167-6.417h-14.417
		v39.667h15.084V46.979C491.76,46.979,492.842,32.062,502.926,37.312z"/>
	<path fill="#2E3091" d="M376.759,318.312l13.417-2.417c0,0-2.833-10-18.75-10s-20.167,7.5-20.167,12.667
		s4.584,11.251,16.167,12.167s10.583,4.25,10.583,4.25s0.25,4.583-6.083,4.583s-7.583-5.667-7.583-5.667l-14.584,2.167
		c0,0,2.501,11.5,21.334,11.5s19.75-9.999,19.75-13.666s-1.57-10.952-17.417-12.75c-14.146-1.604-7.771-7.167-3.583-7.167
		C374.78,313.979,376.759,318.312,376.759,318.312z"/>
	<path fill="#2E3091" d="M441.676,335.729c0,0-4,1.666-6.25,1.333s-2-4.583-2-4.583v-14.584h8.667v-10.916h-8.583l0.125-15.459
		l-14.875,8.959v6.499h-6.042v10.938h6.042v19.396c0,0-0.167,9.917,11.333,9.917s12.083-1.5,12.083-1.5L441.676,335.729z"/>
	<path fill="#2E3091" d="M472.426,325.646l-1.75,4.917c0,0-0.917,1.75-1.5,1.75s-2-4.75-2-4.75l-6.083-20.5l-16-0.25l16,36.167
		c0,0,1,2.166,1,4.416s-3.249,5.417-6.583,5.417s-7.5-1.667-7.5-1.667l1.75,11.167h9.833c0,0,10.75,0.749,15.25-10.167
		s16.917-44.916,16.917-44.916l-14.75-0.167L472.426,325.646z"/>
	<path fill="#2E3091" d="M391.593,167.729c0,0,181,140.25,181,229c0,0,2.75,48.5-61.5,48.5c-93.5,0-206.25-80.5-206.25-80.5
		s81.527,51,143.5,51c31.75,0,66.75-23.933,66.75-57.25C515.093,277.229,391.593,167.729,391.593,167.729z"/>
	<path fill="#2E3091" d="M211.593,56.396c0,0-95.667-42.667-148-42.667s-59.667,31-59.667,48c0,60.667,96,152.666,96,152.666
		S29.26,138.062,29.26,84.062c0-46.333,46.666-55,69.666-55C143.26,29.062,211.593,56.396,211.593,56.396z"/>
	<radialGradient id="SVGID_1_" cx="133.8428" cy="35.3535" r="27.875" gradientUnits="userSpaceOnUse">
		<stop  offset="0" style="stop-color:#BED9F9"/>
		<stop  offset="1" style="stop-color:#6165B3"/>
	</radialGradient>
	<circle fill="url(#SVGID_1_)" cx="133.843" cy="35.354" r="27.875"/>
	<radialGradient id="SVGID_2_" cx="438.8018" cy="415.1455" r="25.0415" gradientUnits="userSpaceOnUse">
		<stop  offset="0" style="stop-color:#BED9F9"/>
		<stop  offset="1" style="stop-color:#6165B3"/>
	</radialGradient>
	<circle fill="url(#SVGID_2_)" cx="438.801" cy="415.146" r="25.042"/>
	<radialGradient id="SVGID_3_" cx="335.3018" cy="382.583" r="20.104" gradientUnits="userSpaceOnUse">
		<stop  offset="0" style="stop-color:#BED9F9"/>
		<stop  offset="1" style="stop-color:#6165B3"/>
	</radialGradient>
	<circle fill="url(#SVGID_3_)" cx="335.301" cy="382.583" r="20.104"/>
	<path fill="#2E3091" d="M279.843,25.979c0,0,0.625-15.875-22.625-15.875s-22,15.125-22,16.875s-1.086,9.948,16.5,14.875
		c12.938,3.625,14.875,4.875,14.875,7.75s-1.625,6.75-8.375,6.75s-8.625-6.875-9.625-9.5l-15.875,1.125c0,0,0.75,18.5,24.25,18.5
		s25-15.625,25-18.875s-0.25-13.063-20.5-17.125c-18.271-3.666-9.188-10.75-5.5-10.813c3.706-0.063,7.875,0.063,8.75,7.188
		L279.843,25.979z"/>
	<polygon fill="#2E3091" points="333.843,11.104 333.843,65.604 349.093,65.604 349.093,55.729 354.718,49.979 363.093,65.604 
		379.843,65.604 365.218,40.604 378.843,25.854 360.843,25.854 349.218,39.104 349.093,10.854 	"/>
	<polygon fill="#2E3091" points="381.093,11.104 381.093,65.604 396.343,65.604 396.343,55.729 401.968,49.979 410.343,65.604 
		427.093,65.604 412.468,40.604 426.093,25.854 408.093,25.854 396.468,39.104 396.343,10.854 	"/>
</g>
</svg>
